<svg width="759" height="459" viewBox="0 0 759 459" fill="none" xmlns="http://www.w3.org/2000/svg">
<path d="M552.585 343.116H15.2059C7.57555 343.116 1.32114 336.862 1.32114 329.231V14.8848C1.32114 7.2544 7.57555 1 15.2059 1H552.71C560.34 1 566.594 7.2544 566.594 14.8848V329.231C566.594 336.862 560.34 343.116 552.585 343.116Z" fill="#125D35" stroke="#414042" stroke-miterlimit="10"/>
<g filter="url(#filter0_dd_5_2)">
<path d="M599.135 219.914C599.364 219.57 604.874 221.866 604.874 221.866C604.874 221.866 601.889 220.144 598.101 219.685C596.609 219.455 593.28 219.226 588.689 220.947C559.303 231.278 534.165 253.662 534.165 253.662C508.223 276.734 508.108 284.999 508.912 288.902C509.141 289.82 509.945 293.723 513.159 296.592C514.766 297.97 520.735 302.561 547.825 294.182C552.072 292.804 564.354 288.902 581.457 280.178C597.298 272.143 605.563 266.059 607.744 264.452C621.289 254.351 628.405 248.956 628.061 242.413C627.143 229.671 598.675 220.718 599.135 219.914Z" fill="#414042"/>
<mask id="mask0_5_2" style="mask-type:luminance" maskUnits="userSpaceOnUse" x="508" y="219" width="121" height="81">
<path d="M599.135 219.914C599.364 219.57 604.874 221.866 604.874 221.866C604.874 221.866 601.889 220.144 598.101 219.685C596.609 219.455 593.28 219.226 588.689 220.947C559.303 231.278 534.165 253.662 534.165 253.662C508.223 276.734 508.108 284.999 508.912 288.902C509.141 289.82 509.945 293.723 513.159 296.592C514.766 297.97 520.735 302.561 547.825 294.182C552.072 292.804 564.354 288.902 581.457 280.178C597.298 272.143 605.563 266.059 607.744 264.452C621.289 254.351 628.405 248.956 628.061 242.413C627.143 229.671 598.675 220.718 599.135 219.914Z" fill="white"/>
</mask>
<g mask="url(#mask0_5_2)">
<path d="M513.847 280.752C514.077 280.407 514.421 280.063 514.651 279.719C514.077 280.522 513.503 281.211 512.929 282.014C520.849 271.683 530.033 262.386 540.249 254.465C539.445 255.039 538.756 255.613 537.953 256.187C543.692 251.71 549.776 247.808 555.86 244.02C561.714 240.346 567.568 236.673 573.766 233.459C577.21 231.623 580.883 229.901 584.442 228.409C583.523 228.753 582.605 229.212 581.687 229.556C590.755 225.768 600.053 222.899 609.695 220.947C612.335 220.373 615.205 217.963 616.467 215.667C617.845 213.257 618.534 209.583 617.615 206.829C616.697 204.074 614.975 201.434 612.335 200.056C609.465 198.564 606.711 198.334 603.496 198.908C586.967 202.237 571.012 208.436 556.434 216.93C548.972 221.292 541.626 225.883 534.394 230.704C527.507 235.296 520.964 240.461 514.881 245.971C507.075 253.088 500.303 261.008 493.989 269.273C492.267 271.454 492.153 275.586 492.841 278.112C493.53 280.752 495.596 283.621 498.122 284.884C500.762 286.261 503.976 286.95 506.96 286.032C507.879 285.688 508.797 285.228 509.715 284.884C511.437 283.851 512.814 282.473 513.847 280.752Z" fill="#D1D3D4"/>
</g>
</g>
<g filter="url(#filter1_dd_5_2)">
<path d="M677.483 223.421C677.336 222.972 671.447 224.312 671.447 224.312C671.447 224.312 674.702 223.159 678.514 223.348C680.133 223.463 683.265 223.815 687.583 226.269C714.576 241.724 735.229 268.332 735.229 268.332C756.626 295.692 755.144 303.968 753.671 307.526C753.279 308.474 751.814 312.146 748.174 314.361C746.408 315.408 739.635 318.882 714.531 305.71C710.581 303.575 699.214 297.48 684.005 285.905C669.892 275.172 662.794 267.622 661.045 265.675C649.573 253.258 643.465 246.674 645.086 240.344C648.229 227.922 677.777 224.321 677.483 223.421Z" fill="#414042"/>
</g>
<g filter="url(#filter2_dd_5_2)">
<path d="M599.364 214.634C597.872 214.634 596.38 215.323 595.461 216.471C588 225.654 578.702 238.51 570.438 255.384C565.387 265.714 552.76 293.493 549.317 331.373C544.61 382.568 559.418 423.203 568.142 442.832C568.945 444.553 570.438 445.701 572.16 445.931C578.128 446.849 584.557 447.423 591.444 447.882C599.708 448.341 607.514 448.341 614.746 447.882C617.73 447.767 620.026 444.783 619.681 441.569C618.878 434.108 618.878 424.006 622.322 414.249C625.076 406.559 628.291 403.804 630.242 402.541C631.16 401.967 635.407 399.327 639.999 400.59C645.164 401.967 647.69 407.362 649.411 410.921C654.462 421.596 654.003 433.763 652.74 442.028C652.281 445.357 654.577 448.456 657.676 448.571C664.104 448.915 670.762 449.03 677.879 448.915C685.34 448.8 692.572 448.456 699.229 447.882C701.066 447.767 702.788 446.505 703.591 444.553C711.741 425.269 723.679 389.455 721.383 343.655C718.054 278.915 688.21 234.607 675.468 217.848C674.55 216.585 673.058 215.897 671.565 215.782C647.345 215.438 623.355 214.978 599.364 214.634Z" fill="#FAFAFA"/>
<path d="M599.364 214.634C597.872 214.634 596.38 215.323 595.461 216.471C588 225.654 578.702 238.51 570.438 255.384C565.387 265.714 552.76 293.493 549.317 331.373C544.61 382.568 559.418 423.203 568.142 442.832C568.945 444.553 570.438 445.701 572.16 445.931C578.128 446.849 584.557 447.423 591.444 447.882C599.708 448.341 607.514 448.341 614.746 447.882C617.73 447.767 620.026 444.783 619.681 441.569C618.878 434.108 618.878 424.006 622.322 414.249C625.076 406.559 628.291 403.804 630.242 402.541C631.16 401.967 635.407 399.327 639.999 400.59C645.164 401.967 647.69 407.362 649.411 410.921C654.462 421.596 654.003 433.763 652.74 442.028C652.281 445.357 654.577 448.456 657.676 448.571C664.104 448.915 670.762 449.03 677.879 448.915C685.34 448.8 692.572 448.456 699.229 447.882C701.066 447.767 702.788 446.505 703.591 444.553C711.741 425.269 723.679 389.455 721.383 343.655C718.054 278.915 688.21 234.607 675.468 217.848C674.55 216.585 673.058 215.897 671.565 215.782C647.345 215.438 623.355 214.978 599.364 214.634Z" stroke="#414042" stroke-width="4" stroke-miterlimit="10"/>
</g>
<g filter="url(#filter3_dd_5_2)">
<path d="M612.794 139.448C597.642 143.581 582.605 135.431 579.162 121.427C577.669 115.343 578.588 109.03 581.343 103.52C584.901 96.5178 591.673 90.7784 600.168 88.4826C614.631 84.5799 628.979 91.8115 633.341 104.668C633.571 105.242 633.686 105.93 633.915 106.504C637.359 120.508 627.946 135.316 612.794 139.448Z" fill="#414042"/>
</g>
<g filter="url(#filter4_d_5_2)">
<path d="M633.341 104.668C632.538 107.193 631.734 109.833 630.931 112.358C631.045 110.063 630.931 105.127 628.061 100.191C622.781 91.1228 612.679 89.6305 610.843 89.2862C602.808 88.0235 596.609 91.1228 593.625 92.5002C585.36 96.7473 581.228 103.635 581.228 103.405C584.786 96.403 591.559 90.6636 600.053 88.3679C614.631 84.4651 628.979 91.6967 633.341 104.668Z" fill="#D1D3D4"/>
</g>
<g filter="url(#filter5_d_5_2)">
<g filter="url(#filter6_d_5_2)">
<path d="M671.451 143.581C686.603 147.713 701.64 139.563 705.083 125.559C706.576 119.475 705.657 113.162 702.902 107.652C699.344 100.65 692.572 94.9108 684.077 92.615C669.614 88.7122 655.266 95.9439 650.904 108.8C650.674 109.374 650.559 110.063 650.33 110.637C647.001 124.755 656.414 139.448 671.451 143.581Z" fill="#414042"/>
</g>
<path d="M651.018 108.8C651.822 111.325 652.626 113.965 653.429 116.491C653.314 114.195 653.429 109.259 656.299 104.323C661.579 95.2551 671.68 93.7629 673.517 93.4185C681.552 92.1558 687.751 95.2551 690.735 96.6326C699 100.88 703.132 107.767 703.132 107.537C699.574 100.535 692.801 94.7959 684.307 92.5002C669.729 88.5974 655.38 95.829 651.018 108.8Z" fill="#D1D3D4"/>
</g>
<g filter="url(#filter7_d_5_2)">
<path d="M710.478 188.922C710.478 189.266 710.478 189.725 710.478 190.07C710.249 198.334 706.461 204.074 704.395 207.173C697.852 216.93 688.554 220.947 680.978 224.161C667.777 229.671 656.413 230.016 646.542 230.245C635.522 230.59 625.88 229.327 618.189 227.835C608.203 225.883 595.232 223.243 581.802 214.06C579.621 212.568 577.44 211.076 575.373 209.469C570.323 205.566 565.846 201.089 563.206 194.087C562.058 191.103 558.959 181.346 563.206 170.326C566.076 162.98 570.782 158.618 573.307 156.552C574.455 149.779 578.588 131.872 594.313 118.098C596.724 116.032 603.267 110.637 613.368 106.734C633.571 99.0431 651.478 103.979 657.102 105.586C676.731 111.211 688.554 123.722 691.883 128.199C691.998 128.429 692.227 128.544 692.342 128.888C693.49 130.495 698.196 137.267 701.295 147.139C704.28 156.781 704.395 165.39 704.05 170.671C705.542 172.737 710.364 179.28 710.478 188.922Z" fill="#FAFAFA"/>
<mask id="mask1_5_2" style="mask-type:luminance" maskUnits="userSpaceOnUse" x="561" y="102" width="150" height="129">
<path d="M710.478 188.922C710.478 189.266 710.478 189.725 710.478 190.07C710.249 198.334 706.461 204.074 704.395 207.173C697.852 216.93 688.554 220.947 680.978 224.161C667.777 229.671 656.413 230.016 646.542 230.245C635.522 230.59 625.88 229.327 618.189 227.835C608.203 225.883 595.232 223.243 581.802 214.06C579.621 212.568 577.44 211.076 575.373 209.469C570.323 205.566 565.846 201.089 563.206 194.087C562.058 191.103 558.959 181.346 563.206 170.326C566.076 162.98 570.782 158.618 573.307 156.552C574.455 149.779 578.588 131.872 594.313 118.098C596.724 116.032 603.267 110.637 613.368 106.734C633.571 99.0431 651.478 103.979 657.102 105.586C676.731 111.211 688.554 123.722 691.883 128.199C691.998 128.429 692.227 128.544 692.342 128.888C693.49 130.495 698.196 137.267 701.295 147.139C704.28 156.781 704.395 165.39 704.05 170.671C705.542 172.737 710.364 179.28 710.478 188.922Z" fill="white"/>
</mask>
<g mask="url(#mask1_5_2)">
<path d="M709.445 173.311C709.101 174.229 708.757 175.147 708.297 176.065C709.101 174.229 709.79 172.392 710.593 170.67C707.724 177.443 703.936 183.756 699.459 189.61C700.607 188.118 701.869 186.511 703.017 185.019C698.541 190.873 693.26 196.039 687.521 200.515C689.013 199.367 690.62 198.105 692.112 196.957C686.373 201.319 680.175 205.107 673.517 207.862C675.353 207.058 677.19 206.369 678.912 205.566C670.188 209.239 661.005 211.42 651.592 212.683C653.659 212.453 655.61 212.109 657.676 211.879C642.639 213.831 627.487 213.371 612.45 211.42C614.516 211.65 616.467 211.994 618.534 212.224C601.775 209.928 585.245 205.91 568.945 201.319C552.646 196.727 536.346 191.677 519.931 187.544C510.633 185.134 501.336 183.182 491.808 181.575C488.824 180.657 485.725 180.542 482.74 181.116C479.756 181.231 476.886 182.149 474.246 183.871C471.606 185.248 469.425 187.315 467.818 189.725C465.752 191.906 464.489 194.546 463.685 197.531C463.456 199.597 463.111 201.548 462.882 203.614C462.882 207.747 463.915 211.535 465.981 215.093C467.129 216.585 468.392 218.192 469.54 219.685C472.409 222.554 475.738 224.506 479.641 225.539C498.581 228.638 517.062 233.804 535.428 239.199C553.908 244.594 572.389 250.103 591.214 253.777C602.463 255.958 613.827 257.565 625.191 258.368C634.604 259.057 644.131 259.057 653.659 258.024C664.793 256.876 676.042 255.154 686.603 251.366C695.786 248.037 704.739 243.905 712.659 238.165C720.35 232.656 727.582 226.572 733.551 219.34C739.52 212.109 745.029 204.418 748.932 195.809C750.424 192.48 751.917 189.036 753.294 185.593C754.212 182.608 754.327 179.509 753.753 176.525C753.638 173.54 752.72 170.67 750.998 168.03C749.621 165.39 747.555 163.209 745.144 161.602C742.963 159.536 740.323 158.273 737.339 157.47C735.273 157.24 733.321 156.896 731.255 156.666C727.123 156.666 723.335 157.699 719.776 159.766C718.284 160.914 716.677 162.176 715.185 163.324C712.545 166.079 710.478 169.523 709.445 173.311Z" fill="#D1D3D4"/>
</g>
<mask id="mask2_5_2" style="mask-type:luminance" maskUnits="userSpaceOnUse" x="561" y="102" width="150" height="129">
<path d="M710.478 188.922C710.478 189.266 710.478 189.725 710.478 190.07C710.249 198.334 706.461 204.074 704.395 207.173C697.852 216.93 688.554 220.947 680.978 224.161C667.777 229.671 656.413 230.016 646.542 230.245C635.522 230.59 625.88 229.327 618.189 227.835C608.203 225.883 595.232 223.243 581.802 214.06C579.621 212.568 577.44 211.076 575.373 209.469C570.323 205.566 565.846 201.089 563.206 194.087C562.058 191.103 558.959 181.346 563.206 170.326C566.076 162.98 570.782 158.618 573.307 156.552C574.455 149.779 578.588 131.872 594.313 118.098C596.724 116.032 603.267 110.637 613.368 106.734C633.571 99.0431 651.478 103.979 657.102 105.586C676.731 111.211 688.554 123.722 691.883 128.199C691.998 128.429 692.227 128.544 692.342 128.888C693.49 130.495 698.196 137.267 701.295 147.139C704.28 156.781 704.395 165.39 704.05 170.671C705.542 172.737 710.364 179.28 710.478 188.922Z" fill="white"/>
</mask>
<g mask="url(#mask2_5_2)">
<path d="M710.938 177.787C710.019 181.805 708.757 185.822 707.15 189.61C707.723 188.118 708.412 186.741 708.986 185.248C707.035 189.725 704.624 194.202 701.64 198.105C702.558 196.842 703.591 195.694 704.509 194.431C703.362 195.924 702.099 197.186 700.721 198.334C701.984 197.416 703.132 196.383 704.395 195.465C702.214 197.186 699.803 198.449 697.393 199.826C694.752 201.319 692.112 202.811 689.472 204.303C684.192 207.288 678.912 210.157 673.746 213.142C671.565 214.29 669.958 215.897 668.581 217.848C666.974 219.57 665.826 221.636 665.367 224.047C664.563 226.457 664.449 228.868 665.023 231.278C665.137 233.689 665.826 235.985 667.204 238.051C669.729 241.953 673.402 245.397 678.108 246.43C682.929 247.578 687.75 247.004 692.112 244.594C700.607 239.887 709.101 235.066 717.48 230.36C720.006 228.982 722.301 227.375 724.597 225.654C725.975 224.621 727.352 223.587 728.5 222.325C730.222 220.488 731.829 218.307 733.206 216.356C735.732 212.912 737.913 209.239 739.634 205.336C742.274 199.597 744.57 193.628 745.948 187.429C746.751 185.019 746.866 182.608 746.292 180.198C746.177 177.787 745.489 175.492 744.111 173.425C742.963 171.244 741.356 169.637 739.405 168.26C737.683 166.653 735.617 165.505 733.206 165.046C728.5 164.013 723.335 164.242 719.202 166.882C715.414 169.293 711.971 173.081 710.938 177.787Z" fill="#D1D3D4"/>
</g>
<mask id="mask3_5_2" style="mask-type:luminance" maskUnits="userSpaceOnUse" x="561" y="102" width="150" height="129">
<path d="M710.478 188.922C710.478 189.266 710.478 189.725 710.478 190.07C710.249 198.334 706.461 204.074 704.395 207.173C697.852 216.93 688.554 220.947 680.978 224.161C667.777 229.671 656.413 230.016 646.542 230.245C635.522 230.59 625.88 229.327 618.189 227.835C608.203 225.883 595.232 223.243 581.802 214.06C579.621 212.568 577.44 211.076 575.373 209.469C570.323 205.566 565.846 201.089 563.206 194.087C562.058 191.103 558.959 181.346 563.206 170.326C566.076 162.98 570.782 158.618 573.307 156.552C574.455 149.779 578.588 131.872 594.313 118.098C596.724 116.032 603.267 110.637 613.368 106.734C633.571 99.0431 651.478 103.979 657.102 105.586C676.731 111.211 688.554 123.722 691.883 128.199C691.998 128.429 692.227 128.544 692.342 128.888C693.49 130.495 698.196 137.267 701.295 147.139C704.28 156.781 704.395 165.39 704.05 170.671C705.542 172.737 710.364 179.28 710.478 188.922Z" fill="white"/>
</mask>
<g mask="url(#mask3_5_2)">
<path d="M713.463 184.215C713.463 184.33 713.348 184.445 713.348 184.56C713.922 183.068 714.611 181.69 715.185 180.198C715.07 180.427 714.955 180.542 714.84 180.772C715.759 179.509 716.792 178.361 717.71 177.099C717.595 177.213 717.48 177.443 717.251 177.558C718.514 176.639 719.661 175.606 720.924 174.688C720.694 174.803 720.58 174.918 720.35 175.032C721.842 174.458 723.22 173.77 724.712 173.196C724.482 173.311 724.253 173.311 724.023 173.425C725.63 173.196 727.237 172.966 728.844 172.737C728.615 172.737 728.5 172.737 728.27 172.737C729.878 172.966 731.484 173.196 733.092 173.425C732.977 173.425 732.862 173.425 732.862 173.425C730.451 172.622 728.041 172.507 725.63 173.081C723.22 173.196 720.924 173.885 718.858 175.262C716.677 176.41 715.07 178.017 713.692 179.968C712.085 181.69 710.938 183.756 710.478 186.167C710.249 187.774 710.019 189.381 709.79 190.988C709.79 194.317 710.593 197.301 712.315 200.171C713.233 201.434 714.266 202.581 715.185 203.844C717.48 206.14 720.121 207.632 723.22 208.55C723.335 208.55 723.449 208.55 723.449 208.55C725.056 208.78 726.663 209.01 728.27 209.239C728.27 209.239 728.27 209.239 728.385 209.239H728.5C728.615 209.239 728.73 209.239 728.73 209.239C730.451 209.124 732.058 208.895 733.78 208.55C734.01 208.55 734.125 208.436 734.239 208.436C734.239 208.436 734.239 208.436 734.354 208.436C735.846 207.862 737.224 207.173 738.716 206.599H738.831C738.946 206.599 738.946 206.484 739.06 206.484C740.553 205.566 741.815 204.533 743.193 203.385C743.193 203.385 743.308 203.27 743.422 203.27C744.57 202.122 745.489 200.745 746.407 199.367C746.522 199.253 746.636 199.138 746.636 198.908C747.325 197.416 748.014 195.924 748.588 194.317C748.588 194.202 748.588 194.087 748.703 194.087C749.506 191.677 749.621 189.266 749.047 186.856C748.932 184.445 748.243 182.149 746.866 180.083C745.718 177.902 744.111 176.295 742.16 174.918C740.438 173.311 738.372 172.163 735.961 171.704C734.354 171.474 732.747 171.244 731.14 171.015C727.811 171.015 724.827 171.818 721.957 173.54C720.695 174.458 719.547 175.492 718.284 176.41C715.988 178.476 714.381 181.116 713.463 184.215Z" fill="#D1D3D4"/>
</g>
<path d="M710.478 188.922C710.478 189.266 710.478 189.725 710.478 190.07C710.249 198.334 706.461 204.074 704.395 207.173C697.852 216.93 688.554 220.947 680.978 224.161C667.777 229.671 656.413 230.016 646.542 230.245C635.522 230.59 625.88 229.327 618.189 227.835C608.203 225.883 595.232 223.243 581.802 214.06C579.621 212.568 577.44 211.076 575.373 209.469C570.323 205.566 565.846 201.089 563.206 194.087C562.058 191.103 558.959 181.346 563.206 170.326C566.076 162.98 570.782 158.618 573.307 156.552C574.455 149.779 578.588 131.872 594.313 118.098C596.724 116.032 603.267 110.637 613.368 106.734C633.571 99.0431 651.478 103.979 657.102 105.586C676.731 111.211 688.554 123.722 691.883 128.199C691.998 128.429 692.227 128.544 692.342 128.888C693.49 130.495 698.196 137.267 701.295 147.139C704.28 156.781 704.395 165.39 704.05 170.671C705.542 172.737 710.364 179.28 710.478 188.922Z" stroke="#414042" stroke-miterlimit="10"/>
</g>
<path d="M618.993 130.036C614.172 128.888 610.039 130.265 608.547 130.839C607.514 131.298 606.596 131.758 605.677 132.217C605.103 132.561 603.037 133.709 600.512 136.119C599.02 137.612 596.954 139.793 595.002 142.892C593.969 145.188 592.477 149.32 592.706 154.6C592.821 156.896 593.051 161.143 595.806 165.62C597.413 168.26 599.938 172.392 605.218 173.77C609.351 174.918 615.09 174.344 617.96 171.015C620.141 168.604 620.37 165.161 620.485 162.176C620.6 159.536 620.141 158.847 620.6 155.978C620.944 153.452 621.748 151.616 622.322 150.124C624.732 144.614 626.454 144.729 627.028 141.4C627.143 140.826 627.946 136.349 624.847 133.02C623.01 131.069 620.6 130.38 618.993 130.036Z" fill="#414042" stroke="black" stroke-miterlimit="10"/>
<path d="M658.594 135.316C663.53 134.857 667.433 136.808 668.811 137.726C669.844 138.3 670.647 138.874 671.451 139.448C671.91 139.793 673.861 141.285 675.927 144.04C677.19 145.647 678.912 148.172 680.404 151.616C681.093 154.026 681.896 158.388 680.978 163.439C680.519 165.62 679.715 169.867 676.272 173.885C674.32 176.18 671.106 179.853 665.711 180.542C661.464 181.001 655.954 179.624 653.544 175.951C651.822 173.196 652.052 169.752 652.396 166.882C652.626 164.357 653.199 163.668 653.199 160.799C653.199 158.273 652.74 156.322 652.281 154.83C650.789 148.976 649.067 148.861 648.952 145.532C648.952 144.958 648.838 140.367 652.396 137.612C654.462 135.775 656.987 135.431 658.594 135.316Z" fill="#414042" stroke="black" stroke-miterlimit="10"/>
<path d="M617.845 193.858C616.582 195.12 618.189 200.171 620.6 204.074C620.715 204.188 620.715 204.303 620.829 204.418C623.814 209.01 628.291 210.272 629.668 210.731C630.586 210.961 634.374 211.879 638.736 210.387C640.114 209.928 642.41 209.01 644.476 206.714C645.968 204.992 646.886 203.155 647.231 202.007C648.838 198.679 649.297 195.924 648.378 195.12C648.264 195.005 647.575 194.546 645.853 195.35C642.869 195.465 640.688 194.891 639.54 194.317C638.277 193.513 636.9 192.251 636.9 192.251C635.293 190.644 635.293 189.955 634.26 189.496C632.538 188.692 630.701 189.496 630.357 189.61C629.898 189.84 629.553 190.07 629.209 190.299C628.75 190.758 628.291 190.988 628.176 191.103C627.487 191.906 626.11 192.939 624.962 193.398C623.47 194.087 621.977 194.087 620.37 193.972C618.649 193.972 618.304 193.513 617.845 193.858Z" fill="#171515"/>
<mask id="mask4_5_2" style="mask-type:luminance" maskUnits="userSpaceOnUse" x="617" y="189" width="32" height="23">
<path d="M617.845 193.858C616.582 195.12 618.189 200.171 620.6 204.074C620.715 204.188 620.715 204.303 620.829 204.418C623.814 209.01 628.291 210.272 629.668 210.731C630.586 210.961 634.374 211.879 638.736 210.387C640.114 209.928 642.41 209.01 644.476 206.714C645.968 204.992 646.886 203.155 647.231 202.007C648.838 198.679 649.297 195.924 648.378 195.12C648.264 195.005 647.575 194.546 645.853 195.35C642.869 195.465 640.688 194.891 639.54 194.317C638.277 193.513 636.9 192.251 636.9 192.251C635.293 190.644 635.293 189.955 634.26 189.496C632.538 188.692 630.701 189.496 630.357 189.61C629.898 189.84 629.553 190.07 629.209 190.299C628.75 190.758 628.291 190.988 628.176 191.103C627.487 191.906 626.11 192.939 624.962 193.398C623.47 194.087 621.977 194.087 620.37 193.972C618.649 193.972 618.304 193.513 617.845 193.858Z" fill="white"/>
</mask>
<g mask="url(#mask4_5_2)">
<path d="M633.226 220.718C640.263 220.718 645.968 216.658 645.968 211.65C645.968 206.641 640.263 202.581 633.226 202.581C626.19 202.581 620.485 206.641 620.485 211.65C620.485 216.658 626.19 220.718 633.226 220.718Z" fill="#BE1E2D"/>
</g>
<path d="M617.845 193.858C616.582 195.12 618.189 200.171 620.6 204.074C620.715 204.188 620.715 204.303 620.829 204.418C623.814 209.01 628.291 210.272 629.668 210.731C630.586 210.961 634.374 211.879 638.736 210.387C640.114 209.928 642.41 209.01 644.476 206.714C645.968 204.992 646.886 203.155 647.231 202.007C648.838 198.679 649.297 195.924 648.378 195.12C648.264 195.005 647.575 194.546 645.853 195.35C642.869 195.465 640.688 194.891 639.54 194.317C638.277 193.513 636.9 192.251 636.9 192.251C635.293 190.644 635.293 189.955 634.26 189.496C632.538 188.692 630.701 189.496 630.357 189.61C629.898 189.84 629.553 190.07 629.209 190.299C628.75 190.758 628.291 190.988 628.176 191.103C627.487 191.906 626.11 192.939 624.962 193.398C623.47 194.087 621.977 194.087 620.37 193.972C618.649 193.972 618.304 193.513 617.845 193.858Z" stroke="#414042" stroke-width="2" stroke-miterlimit="10"/>
<path d="M633.226 188.348C632.882 189.151 631.045 192.595 626.224 194.317C625.191 194.661 621.748 195.924 617.73 195.005C611.991 193.743 609.81 189.266 609.58 188.692" fill="white"/>
<path d="M633.341 188.462C633.112 191.103 631.16 193.398 628.75 194.431C627.487 194.891 626.224 195.005 624.962 195.235C622.551 195.694 620.026 196.842 617.501 196.383C613.598 196.038 609.81 192.824 609.351 188.922L609.58 188.807C611.417 190.529 613.139 191.677 615.09 192.595C617.96 193.972 621.518 195.465 624.732 194.431C626.684 193.513 628.405 191.791 630.242 190.643C631.16 189.955 631.964 189.266 632.997 188.462H633.341Z" fill="#414042"/>
<path d="M633.226 188.348C633.456 189.151 634.833 192.71 639.425 194.891C640.458 195.35 643.672 196.842 647.804 196.268C653.773 195.465 656.413 191.217 656.758 190.758" fill="white"/>
<path d="M633.341 188.348C634.948 190.184 636.44 191.447 638.277 192.939C639.081 193.628 639.884 194.546 641.032 195.12C644.131 196.383 647.804 195.005 650.789 193.972C652.74 193.169 654.692 192.136 656.643 190.643L656.873 190.758C655.61 196.039 649.182 198.793 644.246 197.072C642.983 196.727 641.835 196.268 640.688 195.924C639.54 195.579 638.162 195.465 637.014 194.891C635.867 194.317 634.833 193.284 634.145 192.251C633.456 191.103 632.997 189.84 633.112 188.577L633.341 188.348Z" fill="#414042"/>
<path d="M624.273 184.101C623.699 183.641 621.977 182.264 622.092 180.542C622.207 179.624 622.781 178.935 623.355 178.361C624.732 176.869 626.454 176.41 628.291 175.951C629.094 175.721 631.275 175.262 633.915 175.377C634.719 175.377 636.785 175.492 639.195 176.295C640.114 176.525 641.262 176.984 642.754 177.787C644.017 178.476 645.05 179.05 645.738 180.313C645.968 180.772 646.542 181.575 646.312 182.608C646.083 183.756 645.164 184.445 644.476 184.904C643.902 185.363 643.098 185.593 641.491 186.167C639.54 186.855 639.54 186.741 638.966 187.085C638.162 187.659 638.277 187.889 636.9 189.151C635.981 190.07 635.522 190.529 634.834 190.758C633.8 191.217 632.538 191.103 631.505 190.643C631.046 190.414 630.472 189.725 629.324 188.348C627.946 186.626 628.061 186.626 627.487 186.052C626.224 184.904 625.651 185.248 624.273 184.101Z" fill="#414042" stroke="#414042" stroke-miterlimit="10"/>
<path d="M661.005 149.32C662.956 149.09 664.563 149.779 665.137 150.124C665.482 150.353 665.941 150.583 666.17 150.697C666.4 150.812 667.204 151.386 668.122 152.419C668.696 152.993 669.385 153.912 670.073 155.174C670.418 156.092 670.877 157.699 670.532 159.651C670.418 160.454 670.188 162.061 668.811 163.668C668.237 164.472 666.974 165.964 664.678 166.309C664.334 166.309 662.038 166.653 660.431 165.39C659.513 164.702 659.168 163.783 658.594 162.176C658.25 161.373 658.021 160.569 657.676 159.192C657.447 158.273 657.332 157.814 657.217 157.47C656.873 155.748 657.102 154.256 657.217 153.452C657.447 151.845 657.676 151.042 658.48 150.353C659.283 149.435 660.316 149.32 661.005 149.32Z" fill="white" stroke="black" stroke-miterlimit="10"/>
<path d="M664.991 162.08C666.867 161.492 667.74 158.955 666.943 156.415C666.145 153.874 663.979 152.292 662.104 152.881C660.229 153.469 659.355 156.006 660.153 158.546C660.95 161.087 663.116 162.669 664.991 162.08Z" fill="black" stroke="black" stroke-miterlimit="10"/>
<path d="M613.483 145.532C611.532 145.302 609.925 145.991 609.351 146.336C609.006 146.565 608.547 146.795 608.318 146.909C608.088 147.024 607.285 147.598 606.366 148.631C605.792 149.205 605.104 150.124 604.415 151.386C604.07 152.304 603.611 153.911 603.956 155.863C604.07 156.666 604.3 158.273 605.677 159.88C606.251 160.684 607.514 162.176 609.81 162.521C610.154 162.521 612.45 162.865 614.057 161.602C614.975 160.914 615.32 159.995 615.894 158.388C616.238 157.585 616.467 156.781 616.812 155.404C617.041 154.485 617.156 154.026 617.271 153.682C617.615 151.96 617.386 150.468 617.271 149.664C617.041 148.057 616.812 147.254 616.008 146.565C615.09 145.762 614.172 145.647 613.483 145.532Z" fill="white" stroke="black" stroke-miterlimit="10"/>
<path d="M614.333 154.804C615.13 152.264 614.256 149.728 612.381 149.139C610.506 148.55 608.34 150.133 607.542 152.673C606.745 155.213 607.619 157.75 609.494 158.339C611.369 158.927 613.535 157.345 614.333 154.804Z" fill="black" stroke="black" stroke-miterlimit="10"/>
<path d="M611.187 155.978C614.172 155.978 614.172 151.386 611.187 151.386C608.203 151.386 608.203 155.978 611.187 155.978Z" fill="black"/>
<g filter="url(#filter8_d_5_2)">
<path d="M533.247 304.054C533.361 304.283 534.394 305.316 534.509 306.464C534.509 306.923 534.394 307.153 534.394 307.153C533.935 307.612 532.673 307.382 531.869 307.268C445.779 202.581 431.086 180.887 433.037 179.854C437.973 177.443 530.606 301.069 533.247 304.054Z" fill="#C49A6C"/>
<path d="M533.247 304.054C533.361 304.283 534.394 305.316 534.509 306.464C534.509 306.923 534.394 307.153 534.394 307.153C533.935 307.612 532.673 307.382 531.869 307.268C445.779 202.581 431.086 180.887 433.037 179.854C437.973 177.443 530.606 301.069 533.247 304.054Z" stroke="#414042" stroke-miterlimit="10"/>
</g>
<path d="M662.382 159.077C664.563 159.077 664.563 155.633 662.382 155.633C660.202 155.748 660.202 159.077 662.382 159.077Z" fill="white"/>
<path d="M612.106 155.519C614.287 155.519 614.287 152.075 612.106 152.075C609.925 152.075 609.925 155.519 612.106 155.519Z" fill="white"/>
<path d="M637.58 178.969C637.61 178.526 636.25 178.073 634.542 177.956C632.835 177.84 631.426 178.104 631.396 178.547C631.366 178.99 632.725 179.443 634.433 179.56C636.141 179.676 637.55 179.411 637.58 178.969Z" fill="white"/>
<path d="M715.414 306.464C714.037 314.844 707.15 353.297 675.353 376.14C670.418 379.698 655.61 390.029 637.129 390.603C603.382 391.751 569.06 360.07 551.957 311.629C549.432 325.519 547.48 343.77 548.858 364.891C551.153 400.705 561.829 428.368 569.864 444.898C575.488 445.931 580.539 446.734 584.557 447.308C600.512 449.719 606.366 450.063 613.139 447.882C615.434 447.079 617.271 446.275 618.419 445.701C618.534 443.176 618.763 439.503 619.108 435.256C619.911 423.318 620.141 421.94 620.485 419.989C621.518 415.283 622.666 409.888 626.798 405.411C628.405 403.804 631.505 400.36 636.211 400.245C640.802 400.016 644.131 403.115 645.394 404.263C649.871 408.395 651.133 413.905 652.281 419.3C653.199 423.318 654.118 427.909 653.544 433.878C652.97 439.044 651.478 442.372 653.199 445.357C654.462 447.423 656.528 448.227 657.676 448.571C667.089 451.67 697.737 447.653 701.295 447.193C705.313 439.158 709.101 430.09 712.315 419.989C726.778 373.73 721.039 331.258 715.414 306.464Z" fill="#414042"/>
<mask id="mask5_5_2" style="mask-type:luminance" maskUnits="userSpaceOnUse" x="548" y="306" width="174" height="144">
<path d="M715.414 306.464C714.037 314.844 707.15 353.297 675.353 376.14C670.418 379.698 655.61 390.029 637.129 390.603C603.382 391.751 569.06 360.07 551.957 311.629C549.432 325.519 547.48 343.77 548.858 364.891C551.153 400.705 561.829 428.368 569.864 444.898C575.488 445.931 580.539 446.734 584.557 447.308C600.512 449.719 606.366 450.063 613.139 447.882C615.434 447.079 617.271 446.275 618.419 445.701C618.534 443.176 618.763 439.503 619.108 435.256C619.911 423.318 620.141 421.94 620.485 419.989C621.518 415.283 622.666 409.888 626.798 405.411C628.405 403.804 631.505 400.36 636.211 400.245C640.802 400.016 644.131 403.115 645.394 404.263C649.871 408.395 651.133 413.905 652.281 419.3C653.199 423.318 654.118 427.909 653.544 433.878C652.97 439.044 651.478 442.372 653.199 445.357C654.462 447.423 656.528 448.227 657.676 448.571C667.089 451.67 697.737 447.653 701.295 447.193C705.313 439.158 709.101 430.09 712.315 419.989C726.778 373.73 721.039 331.258 715.414 306.464Z" fill="white"/>
</mask>
<g mask="url(#mask5_5_2)">
<path d="M548.743 315.762C549.546 324.715 547.251 333.439 546.562 342.278C546.218 346.64 546.218 351.116 547.251 355.478C548.169 359.955 550.006 364.087 551.957 368.22C558.729 383.142 565.731 398.179 574.914 411.839C579.965 419.415 585.704 426.532 592.362 432.845C594.543 434.911 597.757 431.697 595.576 429.631C583.983 418.726 575.488 405.181 568.142 391.177C564.354 384.06 560.91 376.714 557.582 369.368C555.745 365.465 553.908 361.562 552.646 357.544C551.383 353.412 550.924 349.28 551.153 345.033C551.498 335.276 554.368 325.634 553.564 315.877C553.449 314.614 552.646 313.581 551.268 313.581C549.891 313.466 548.628 314.499 548.743 315.762Z" fill="#414042"/>
</g>
<mask id="mask6_5_2" style="mask-type:luminance" maskUnits="userSpaceOnUse" x="548" y="306" width="174" height="144">
<path d="M715.414 306.464C714.037 314.844 707.15 353.297 675.353 376.14C670.418 379.698 655.61 390.029 637.129 390.603C603.382 391.751 569.06 360.07 551.957 311.629C549.432 325.519 547.48 343.77 548.858 364.891C551.153 400.705 561.829 428.368 569.864 444.898C575.488 445.931 580.539 446.734 584.557 447.308C600.512 449.719 606.366 450.063 613.139 447.882C615.434 447.079 617.271 446.275 618.419 445.701C618.534 443.176 618.763 439.503 619.108 435.256C619.911 423.318 620.141 421.94 620.485 419.989C621.518 415.283 622.666 409.888 626.798 405.411C628.405 403.804 631.505 400.36 636.211 400.245C640.802 400.016 644.131 403.115 645.394 404.263C649.871 408.395 651.133 413.905 652.281 419.3C653.199 423.318 654.118 427.909 653.544 433.878C652.97 439.044 651.478 442.372 653.199 445.357C654.462 447.423 656.528 448.227 657.676 448.571C667.089 451.67 697.737 447.653 701.295 447.193C705.313 439.158 709.101 430.09 712.315 419.989C726.778 373.73 721.039 331.258 715.414 306.464Z" fill="white"/>
</mask>
<g mask="url(#mask6_5_2)">
<path d="M531.64 306.464C530.606 328.274 531.64 350.083 534.739 371.663C536.346 383.372 538.642 394.965 541.511 406.329C543.807 415.627 546.562 424.81 550.12 433.763C553.22 441.569 556.893 449.145 561.369 456.376C562.517 458.328 564.584 459.935 566.879 460.624C569.06 461.198 571.93 460.968 573.881 459.705C578.014 457.065 579.85 451.555 577.21 447.193C573.767 441.454 570.552 435.485 568.027 429.401C568.372 430.09 568.601 430.894 568.945 431.582C562.058 415.283 557.811 397.72 554.597 380.387C553.679 375.451 552.875 370.401 552.186 365.465C552.301 366.268 552.416 367.072 552.531 367.875C550.579 353.068 549.661 338.145 549.661 323.223C549.661 317.713 549.776 312.089 550.006 306.579C550.235 301.758 545.644 297.281 540.937 297.511C535.542 297.625 531.869 301.413 531.64 306.464Z" fill="#D1D3D4"/>
</g>
<mask id="mask7_5_2" style="mask-type:luminance" maskUnits="userSpaceOnUse" x="548" y="306" width="174" height="144">
<path d="M715.414 306.464C714.037 314.844 707.15 353.297 675.353 376.14C670.418 379.698 655.61 390.029 637.129 390.603C603.382 391.751 569.06 360.07 551.957 311.629C549.432 325.519 547.48 343.77 548.858 364.891C551.153 400.705 561.829 428.368 569.864 444.898C575.488 445.931 580.539 446.734 584.557 447.308C600.512 449.719 606.366 450.063 613.139 447.882C615.434 447.079 617.271 446.275 618.419 445.701C618.534 443.176 618.763 439.503 619.108 435.256C619.911 423.318 620.141 421.94 620.485 419.989C621.518 415.283 622.666 409.888 626.798 405.411C628.405 403.804 631.505 400.36 636.211 400.245C640.802 400.016 644.131 403.115 645.394 404.263C649.871 408.395 651.133 413.905 652.281 419.3C653.199 423.318 654.118 427.909 653.544 433.878C652.97 439.044 651.478 442.372 653.199 445.357C654.462 447.423 656.528 448.227 657.676 448.571C667.089 451.67 697.737 447.653 701.295 447.193C705.313 439.158 709.101 430.09 712.315 419.989C726.778 373.73 721.039 331.258 715.414 306.464Z" fill="white"/>
</mask>
<g mask="url(#mask7_5_2)">
<path d="M704.969 454.54C710.593 456.721 714.381 462.345 716.677 467.626C719.432 473.709 720.465 480.597 720.694 487.254C720.809 491.501 720.694 495.634 720.465 499.881C720.235 502.865 724.827 502.751 725.056 499.881C725.975 485.303 725.401 469.118 715.644 457.18C713.119 454.081 710.019 451.67 706.231 450.178C705.083 449.719 703.706 450.637 703.476 451.785C703.017 453.048 703.821 454.081 704.969 454.54Z" fill="#414042"/>
</g>
<g filter="url(#filter9_d_5_2)">
<path d="M509.486 281.67C511.322 279.145 514.651 278.112 517.406 278.456C520.62 278.8 522.571 281.096 524.064 282.818C525.211 284.081 527.966 287.295 527.622 291.771C527.392 294.067 526.359 295.789 526.015 296.363C525.326 297.511 524.293 299.118 522.342 299.806C520.964 300.266 519.702 300.036 517.291 299.462C515.684 299.118 514.421 298.773 513.044 297.855C511.552 296.822 510.633 295.559 510.174 294.641C509.6 293.723 508.108 291.312 507.993 287.754C507.993 286.147 507.879 283.736 509.486 281.67Z" fill="#414042"/>
<path d="M509.486 281.67C511.322 279.145 514.651 278.112 517.406 278.456C520.62 278.8 522.571 281.096 524.064 282.818C525.211 284.081 527.966 287.295 527.622 291.771C527.392 294.067 526.359 295.789 526.015 296.363C525.326 297.511 524.293 299.118 522.342 299.806C520.964 300.266 519.702 300.036 517.291 299.462C515.684 299.118 514.421 298.773 513.044 297.855C511.552 296.822 510.633 295.559 510.174 294.641C509.6 293.723 508.108 291.312 507.993 287.754C507.993 286.147 507.879 283.736 509.486 281.67Z" stroke="#332F2F" stroke-miterlimit="10"/>
</g>
<g filter="url(#filter10_d_5_2)">
<path d="M115.09 148.837V136.405C115.09 135.477 115.266 134.653 115.618 133.933C115.97 133.197 116.514 132.629 117.25 132.229C117.986 131.813 118.93 131.605 120.082 131.605C120.722 131.605 121.33 131.669 121.906 131.797C122.498 131.909 123.058 132.061 123.586 132.253L123.01 134.293C122.578 134.117 122.154 133.989 121.738 133.909C121.338 133.829 120.898 133.789 120.418 133.789C119.522 133.789 118.866 134.013 118.45 134.461C118.034 134.893 117.826 135.525 117.826 136.357V148.837H115.09ZM111.826 139.237V137.173L115.162 137.053H122.314V139.237H111.826ZM125.113 148.837V137.053H127.249L127.465 138.541H127.537C127.793 138.029 128.121 137.605 128.521 137.269C128.921 136.933 129.465 136.765 130.153 136.765C130.697 136.765 131.153 136.933 131.521 137.269C131.889 137.589 132.145 138.077 132.289 138.733C132.561 138.157 132.905 137.685 133.321 137.317C133.737 136.949 134.289 136.765 134.977 136.765C135.809 136.765 136.449 137.093 136.897 137.749C137.361 138.389 137.593 139.301 137.593 140.485V148.837H134.929V140.677C134.929 139.637 134.617 139.117 133.993 139.117C133.673 139.117 133.401 139.237 133.177 139.477C132.969 139.717 132.745 140.093 132.505 140.605V148.837H130.201V140.677C130.201 140.165 130.129 139.781 129.985 139.525C129.841 139.253 129.601 139.117 129.265 139.117C128.961 139.117 128.697 139.237 128.473 139.477C128.249 139.717 128.025 140.093 127.801 140.605V148.837H125.113ZM147.783 149.125C146.583 149.125 145.631 148.917 144.927 148.501C144.223 148.069 143.719 147.477 143.415 146.725C143.111 145.973 142.959 145.101 142.959 144.109V139.237H139.815V137.173L143.079 137.053L143.439 133.357H145.719V137.053H151.095V139.237H145.719V144.085C145.719 144.725 145.807 145.261 145.983 145.693C146.159 146.109 146.447 146.421 146.847 146.629C147.247 146.821 147.775 146.917 148.431 146.917C148.943 146.917 149.407 146.877 149.823 146.797C150.239 146.717 150.639 146.605 151.023 146.461L151.551 148.453C151.023 148.629 150.455 148.781 149.847 148.909C149.239 149.053 148.551 149.125 147.783 149.125ZM159.99 149.125C159.318 149.125 158.75 148.893 158.286 148.429C157.838 147.965 157.614 147.389 157.614 146.701C157.614 145.997 157.838 145.421 158.286 144.973C158.75 144.509 159.318 144.277 159.99 144.277C160.678 144.277 161.246 144.509 161.694 144.973C162.142 145.421 162.366 145.997 162.366 146.701C162.366 147.389 162.142 147.965 161.694 148.429C161.246 148.893 160.678 149.125 159.99 149.125ZM169.292 148.837V133.141H174.452C175.604 133.141 176.628 133.293 177.524 133.597C178.42 133.901 179.124 134.405 179.636 135.109C180.164 135.813 180.428 136.773 180.428 137.989C180.428 139.141 180.164 140.093 179.636 140.845C179.124 141.597 178.412 142.157 177.5 142.525C176.604 142.893 175.588 143.077 174.452 143.077H172.076V148.837H169.292ZM172.076 140.845H174.236C175.404 140.845 176.268 140.605 176.828 140.125C177.404 139.645 177.692 138.933 177.692 137.989C177.692 136.997 177.396 136.317 176.804 135.949C176.228 135.565 175.372 135.373 174.236 135.373H172.076V140.845ZM184.691 148.837V137.053H186.971L187.211 139.717H187.283C187.875 138.757 188.603 138.029 189.467 137.533C190.347 137.021 191.291 136.765 192.299 136.765C192.779 136.765 193.195 136.805 193.547 136.885C193.899 136.965 194.243 137.085 194.579 137.245L194.003 139.573C193.619 139.445 193.275 139.357 192.971 139.309C192.683 139.245 192.315 139.213 191.867 139.213C191.067 139.213 190.283 139.445 189.515 139.909C188.763 140.373 188.083 141.181 187.475 142.333V148.837H184.691ZM203.09 148.837V139.237H197.978V137.053H205.85V148.837H203.09ZM204.266 134.893C203.706 134.893 203.234 134.725 202.85 134.389C202.482 134.053 202.298 133.605 202.298 133.045C202.298 132.485 202.482 132.037 202.85 131.701C203.234 131.349 203.706 131.173 204.266 131.173C204.842 131.173 205.314 131.349 205.682 131.701C206.05 132.037 206.234 132.485 206.234 133.045C206.234 133.605 206.05 134.053 205.682 134.389C205.314 134.725 204.842 134.893 204.266 134.893ZM212.32 148.837V137.053H214.6L214.816 138.829H214.912C215.472 138.253 216.088 137.765 216.76 137.365C217.448 136.965 218.248 136.765 219.16 136.765C220.52 136.765 221.52 137.181 222.16 138.013C222.8 138.845 223.12 140.021 223.12 141.541V148.837H220.336V141.901C220.336 140.957 220.168 140.261 219.832 139.813C219.496 139.365 218.928 139.141 218.128 139.141C217.552 139.141 217.04 139.277 216.592 139.549C216.144 139.821 215.648 140.237 215.104 140.797V148.837H212.32ZM234.127 149.125C232.927 149.125 231.975 148.917 231.271 148.501C230.567 148.069 230.063 147.477 229.759 146.725C229.455 145.973 229.303 145.101 229.303 144.109V139.237H226.159V137.173L229.423 137.053L229.783 133.357H232.063V137.053H237.439V139.237H232.063V144.085C232.063 144.725 232.151 145.261 232.327 145.693C232.503 146.109 232.791 146.421 233.191 146.629C233.591 146.821 234.119 146.917 234.775 146.917C235.287 146.917 235.751 146.877 236.167 146.797C236.583 146.717 236.983 146.605 237.367 146.461L237.895 148.453C237.367 148.629 236.799 148.781 236.191 148.909C235.583 149.053 234.895 149.125 234.127 149.125ZM248.734 149.125C247.374 149.125 246.334 148.725 245.614 147.925C244.91 147.109 244.558 145.981 244.558 144.541V134.077H240.718V131.893H247.318V144.685C247.318 145.485 247.518 146.053 247.918 146.389C248.334 146.709 248.838 146.869 249.43 146.869C249.734 146.869 250.046 146.837 250.366 146.773C250.686 146.693 251.046 146.573 251.446 146.413L252.094 148.453C251.534 148.645 251.006 148.805 250.51 148.933C250.03 149.061 249.438 149.125 248.734 149.125ZM255.492 148.837V137.053H257.772L257.988 138.829H258.084C258.644 138.253 259.26 137.765 259.932 137.365C260.62 136.965 261.42 136.765 262.332 136.765C263.692 136.765 264.692 137.181 265.332 138.013C265.972 138.845 266.292 140.021 266.292 141.541V148.837H263.508V141.901C263.508 140.957 263.34 140.261 263.004 139.813C262.668 139.365 262.1 139.141 261.3 139.141C260.724 139.141 260.212 139.277 259.764 139.549C259.316 139.821 258.82 140.237 258.276 140.797V148.837H255.492ZM277.803 153.085C276.203 151.741 274.931 150.157 273.987 148.333C273.043 146.509 272.571 144.453 272.571 142.165C272.571 139.877 273.043 137.821 273.987 135.997C274.931 134.157 276.203 132.573 277.803 131.245L279.339 132.517C277.819 133.893 276.707 135.357 276.003 136.909C275.299 138.461 274.947 140.213 274.947 142.165C274.947 144.117 275.299 145.869 276.003 147.421C276.707 148.973 277.819 150.437 279.339 151.813L277.803 153.085ZM286.529 141.181C285.777 141.181 285.169 140.885 284.705 140.293C284.257 139.685 284.033 138.853 284.033 137.797C284.033 136.549 284.361 135.437 285.017 134.461C285.673 133.485 286.625 132.693 287.873 132.085L288.665 133.597C287.817 134.029 287.169 134.573 286.721 135.229C286.289 135.869 286.073 136.629 286.073 137.509L286.361 139.597L284.993 137.797C285.201 137.589 285.457 137.421 285.761 137.293C286.065 137.149 286.353 137.077 286.625 137.077C287.201 137.077 287.665 137.261 288.017 137.629C288.385 137.981 288.569 138.445 288.569 139.021C288.569 139.661 288.377 140.181 287.993 140.581C287.609 140.981 287.121 141.181 286.529 141.181ZM292.481 141.181C291.729 141.181 291.121 140.885 290.657 140.293C290.209 139.685 289.985 138.853 289.985 137.797C289.985 136.549 290.313 135.437 290.969 134.461C291.625 133.485 292.577 132.693 293.825 132.085L294.617 133.597C293.769 134.029 293.121 134.573 292.673 135.229C292.241 135.869 292.025 136.629 292.025 137.509L292.313 139.597L290.945 137.797C291.153 137.589 291.409 137.421 291.713 137.293C292.017 137.149 292.305 137.077 292.577 137.077C293.153 137.077 293.617 137.261 293.969 137.629C294.337 137.981 294.521 138.445 294.521 139.021C294.521 139.661 294.329 140.181 293.945 140.581C293.561 140.981 293.073 141.181 292.481 141.181ZM298.808 148.837V146.581H303.056V136.549H299.672V134.821C300.312 134.725 300.872 134.621 301.352 134.509C301.832 134.397 302.264 134.261 302.648 134.101C303.048 133.941 303.432 133.765 303.8 133.573H305.816V146.581H309.56V148.837H298.808ZM317.351 149.125C316.343 149.125 315.455 148.957 314.687 148.621C313.935 148.269 313.295 147.861 312.767 147.397L314.255 145.717C314.623 146.037 315.055 146.309 315.551 146.533C316.063 146.757 316.591 146.869 317.135 146.869C317.887 146.869 318.567 146.677 319.175 146.293C319.799 145.909 320.303 145.269 320.687 144.373C321.087 143.477 321.287 142.261 321.287 140.725C321.287 139.477 321.135 138.461 320.831 137.677C320.543 136.877 320.143 136.301 319.631 135.949C319.119 135.581 318.527 135.397 317.855 135.397C317.359 135.397 316.895 135.509 316.463 135.733C316.047 135.957 315.711 136.285 315.455 136.717C315.199 137.133 315.071 137.653 315.071 138.277C315.071 139.189 315.311 139.877 315.791 140.341C316.287 140.789 316.967 141.013 317.831 141.013C318.375 141.013 318.943 140.869 319.535 140.581C320.143 140.293 320.727 139.805 321.287 139.117L321.407 141.061C320.815 141.653 320.151 142.125 319.415 142.477C318.679 142.829 317.967 143.005 317.279 143.005C316.351 143.005 315.527 142.837 314.807 142.501C314.103 142.149 313.543 141.629 313.127 140.941C312.727 140.237 312.527 139.349 312.527 138.277C312.527 137.269 312.767 136.389 313.247 135.637C313.743 134.885 314.391 134.309 315.191 133.909C316.007 133.493 316.879 133.285 317.807 133.285C318.623 133.285 319.391 133.437 320.111 133.741C320.831 134.029 321.471 134.477 322.031 135.085C322.591 135.693 323.031 136.469 323.351 137.413C323.671 138.341 323.831 139.445 323.831 140.725C323.831 142.213 323.647 143.493 323.279 144.565C322.927 145.621 322.447 146.485 321.839 147.157C321.231 147.829 320.535 148.325 319.751 148.645C318.983 148.965 318.183 149.125 317.351 149.125ZM331.741 149.125C330.733 149.125 329.845 148.957 329.077 148.621C328.325 148.269 327.685 147.861 327.157 147.397L328.645 145.717C329.013 146.037 329.445 146.309 329.941 146.533C330.453 146.757 330.981 146.869 331.525 146.869C332.277 146.869 332.957 146.677 333.565 146.293C334.189 145.909 334.693 145.269 335.077 144.373C335.477 143.477 335.677 142.261 335.677 140.725C335.677 139.477 335.525 138.461 335.221 137.677C334.933 136.877 334.533 136.301 334.021 135.949C333.509 135.581 332.917 135.397 332.245 135.397C331.749 135.397 331.285 135.509 330.853 135.733C330.437 135.957 330.101 136.285 329.845 136.717C329.589 137.133 329.461 137.653 329.461 138.277C329.461 139.189 329.701 139.877 330.181 140.341C330.677 140.789 331.357 141.013 332.221 141.013C332.765 141.013 333.333 140.869 333.925 140.581C334.533 140.293 335.117 139.805 335.677 139.117L335.797 141.061C335.205 141.653 334.541 142.125 333.805 142.477C333.069 142.829 332.357 143.005 331.669 143.005C330.741 143.005 329.917 142.837 329.197 142.501C328.493 142.149 327.933 141.629 327.517 140.941C327.117 140.237 326.917 139.349 326.917 138.277C326.917 137.269 327.157 136.389 327.637 135.637C328.133 134.885 328.781 134.309 329.581 133.909C330.397 133.493 331.269 133.285 332.197 133.285C333.013 133.285 333.781 133.437 334.501 133.741C335.221 134.029 335.861 134.477 336.421 135.085C336.981 135.693 337.421 136.469 337.741 137.413C338.061 138.341 338.221 139.445 338.221 140.725C338.221 142.213 338.037 143.493 337.669 144.565C337.317 145.621 336.837 146.485 336.229 147.157C335.621 147.829 334.925 148.325 334.141 148.645C333.373 148.965 332.573 149.125 331.741 149.125ZM346.684 149.125C345.804 149.125 345.012 149.029 344.308 148.837C343.62 148.645 343.012 148.389 342.484 148.069C341.956 147.733 341.492 147.381 341.092 147.013L342.364 145.237C342.716 145.525 343.084 145.797 343.468 146.053C343.852 146.293 344.276 146.493 344.74 146.653C345.22 146.797 345.756 146.869 346.348 146.869C346.988 146.869 347.564 146.757 348.076 146.533C348.588 146.293 348.988 145.957 349.276 145.525C349.58 145.077 349.732 144.549 349.732 143.941C349.732 143.029 349.428 142.325 348.82 141.829C348.228 141.333 347.444 141.085 346.468 141.085C345.908 141.085 345.428 141.157 345.028 141.301C344.628 141.429 344.164 141.645 343.636 141.949L342.316 141.109L342.796 133.573H351.796V135.901H345.196L344.86 139.597C345.26 139.437 345.644 139.317 346.012 139.237C346.38 139.141 346.796 139.093 347.26 139.093C348.22 139.093 349.1 139.269 349.9 139.621C350.7 139.957 351.332 140.477 351.796 141.181C352.276 141.885 352.516 142.781 352.516 143.869C352.516 144.989 352.244 145.941 351.7 146.725C351.156 147.509 350.436 148.109 349.54 148.525C348.66 148.925 347.708 149.125 346.684 149.125ZM356.227 153.493V137.053H358.507L358.723 138.397H358.795C359.307 137.917 359.891 137.525 360.547 137.221C361.219 136.917 361.891 136.765 362.563 136.765C363.603 136.765 364.475 137.013 365.179 137.509C365.883 138.005 366.427 138.701 366.811 139.597C367.195 140.493 367.387 141.549 367.387 142.765C367.387 144.109 367.139 145.253 366.643 146.197C366.147 147.141 365.499 147.869 364.699 148.381C363.915 148.877 363.067 149.125 362.155 149.125C361.627 149.125 361.075 149.005 360.499 148.765C359.939 148.525 359.419 148.181 358.939 147.733H358.867L359.011 149.797V153.493H356.227ZM361.579 146.845C362.139 146.845 362.643 146.693 363.091 146.389C363.539 146.085 363.891 145.637 364.147 145.045C364.403 144.437 364.531 143.685 364.531 142.789C364.531 142.005 364.435 141.333 364.243 140.773C364.051 140.213 363.755 139.789 363.355 139.501C362.971 139.197 362.451 139.045 361.795 139.045C361.347 139.045 360.891 139.157 360.427 139.381C359.963 139.605 359.491 139.965 359.011 140.461V145.765C359.443 146.149 359.891 146.429 360.355 146.605C360.819 146.765 361.227 146.845 361.579 146.845ZM374.289 149.125C373.521 149.125 372.841 148.981 372.249 148.693C371.657 148.389 371.193 147.981 370.857 147.469C370.521 146.957 370.353 146.357 370.353 145.669C370.353 144.357 370.977 143.357 372.225 142.669C373.489 141.965 375.577 141.509 378.489 141.301C378.457 140.869 378.337 140.477 378.129 140.125C377.937 139.773 377.641 139.501 377.241 139.309C376.841 139.101 376.321 138.997 375.681 138.997C375.233 138.997 374.793 139.053 374.361 139.165C373.929 139.277 373.497 139.429 373.065 139.621C372.649 139.813 372.233 140.021 371.817 140.245L370.809 138.397C371.289 138.109 371.817 137.845 372.393 137.605C372.969 137.349 373.577 137.149 374.217 137.005C374.857 136.845 375.513 136.765 376.185 136.765C377.289 136.765 378.209 136.965 378.945 137.365C379.697 137.749 380.265 138.325 380.649 139.093C381.049 139.845 381.249 140.765 381.249 141.853V148.837H378.993L378.777 147.373H378.705C378.081 147.853 377.385 148.269 376.617 148.621C375.865 148.957 375.089 149.125 374.289 149.125ZM375.129 146.965C375.721 146.965 376.289 146.837 376.833 146.581C377.393 146.309 377.945 145.957 378.489 145.525V143.029C377.081 143.125 375.977 143.285 375.177 143.509C374.377 143.717 373.817 143.989 373.497 144.325C373.177 144.661 373.017 145.037 373.017 145.453C373.017 145.805 373.113 146.093 373.305 146.317C373.497 146.541 373.745 146.709 374.049 146.821C374.369 146.917 374.729 146.965 375.129 146.965ZM386.16 148.837V137.053H388.44L388.68 139.717H388.752C389.344 138.757 390.072 138.029 390.936 137.533C391.816 137.021 392.76 136.765 393.768 136.765C394.248 136.765 394.664 136.805 395.016 136.885C395.368 136.965 395.712 137.085 396.048 137.245L395.472 139.573C395.088 139.445 394.744 139.357 394.44 139.309C394.152 139.245 393.784 139.213 393.336 139.213C392.536 139.213 391.752 139.445 390.984 139.909C390.232 140.373 389.552 141.181 388.944 142.333V148.837H386.16ZM399.398 148.837V131.893H402.182V136.261L402.014 138.781H402.086C402.598 138.237 403.19 137.765 403.862 137.365C404.55 136.965 405.342 136.765 406.238 136.765C407.598 136.765 408.598 137.181 409.238 138.013C409.878 138.845 410.198 140.021 410.198 141.541V148.837H407.414V141.901C407.414 140.957 407.246 140.261 406.91 139.813C406.574 139.365 406.006 139.141 405.206 139.141C404.63 139.141 404.118 139.277 403.67 139.549C403.222 139.821 402.726 140.237 402.182 140.797V148.837H399.398ZM417.461 149.125C416.693 149.125 416.013 148.981 415.421 148.693C414.829 148.389 414.365 147.981 414.029 147.469C413.693 146.957 413.525 146.357 413.525 145.669C413.525 144.357 414.149 143.357 415.397 142.669C416.661 141.965 418.749 141.509 421.661 141.301C421.629 140.869 421.509 140.477 421.301 140.125C421.109 139.773 420.813 139.501 420.413 139.309C420.013 139.101 419.493 138.997 418.853 138.997C418.405 138.997 417.965 139.053 417.533 139.165C417.101 139.277 416.669 139.429 416.237 139.621C415.821 139.813 415.405 140.021 414.989 140.245L413.981 138.397C414.461 138.109 414.989 137.845 415.565 137.605C416.141 137.349 416.749 137.149 417.389 137.005C418.029 136.845 418.685 136.765 419.357 136.765C420.461 136.765 421.381 136.965 422.117 137.365C422.869 137.749 423.437 138.325 423.821 139.093C424.221 139.845 424.421 140.765 424.421 141.853V148.837H422.165L421.949 147.373H421.877C421.253 147.853 420.557 148.269 419.789 148.621C419.037 148.957 418.261 149.125 417.461 149.125ZM418.301 146.965C418.893 146.965 419.461 146.837 420.005 146.581C420.565 146.309 421.117 145.957 421.661 145.525V143.029C420.253 143.125 419.149 143.285 418.349 143.509C417.549 143.717 416.989 143.989 416.669 144.325C416.349 144.661 416.189 145.037 416.189 145.453C416.189 145.805 416.285 146.093 416.477 146.317C416.669 146.541 416.917 146.709 417.221 146.821C417.541 146.917 417.901 146.965 418.301 146.965ZM427.316 148.837V137.053H429.452L429.668 138.541H429.74C429.996 138.029 430.324 137.605 430.724 137.269C431.124 136.933 431.668 136.765 432.356 136.765C432.9 136.765 433.356 136.933 433.724 137.269C434.092 137.589 434.348 138.077 434.492 138.733C434.764 138.157 435.108 137.685 435.524 137.317C435.94 136.949 436.492 136.765 437.18 136.765C438.012 136.765 438.652 137.093 439.1 137.749C439.564 138.389 439.796 139.301 439.796 140.485V148.837H437.132V140.677C437.132 139.637 436.82 139.117 436.196 139.117C435.876 139.117 435.604 139.237 435.38 139.477C435.172 139.717 434.948 140.093 434.708 140.605V148.837H432.404V140.677C432.404 140.165 432.332 139.781 432.188 139.525C432.044 139.253 431.804 139.117 431.468 139.117C431.164 139.117 430.9 139.237 430.676 139.477C430.452 139.717 430.228 140.093 430.004 140.605V148.837H427.316ZM443.458 141.181L442.666 139.669C443.498 139.221 444.138 138.677 444.586 138.037C445.034 137.397 445.258 136.637 445.258 135.757L444.946 133.669L446.314 135.469C446.106 135.677 445.85 135.853 445.546 135.997C445.258 136.125 444.97 136.189 444.682 136.189C444.122 136.189 443.658 136.013 443.29 135.661C442.922 135.293 442.738 134.821 442.738 134.245C442.738 133.605 442.93 133.085 443.314 132.685C443.698 132.285 444.186 132.085 444.778 132.085C445.546 132.085 446.154 132.381 446.602 132.973C447.05 133.565 447.274 134.397 447.274 135.469C447.274 136.717 446.946 137.829 446.29 138.805C445.634 139.781 444.69 140.573 443.458 141.181ZM449.41 141.181L448.618 139.669C449.45 139.221 450.09 138.677 450.538 138.037C450.986 137.397 451.21 136.637 451.21 135.757L450.898 133.669L452.266 135.469C452.058 135.677 451.802 135.853 451.498 135.997C451.21 136.125 450.922 136.189 450.634 136.189C450.074 136.189 449.61 136.013 449.242 135.661C448.874 135.293 448.69 134.821 448.69 134.245C448.69 133.605 448.882 133.085 449.266 132.685C449.65 132.285 450.138 132.085 450.73 132.085C451.498 132.085 452.106 132.381 452.554 132.973C453.002 133.565 453.226 134.397 453.226 135.469C453.226 136.717 452.898 137.829 452.242 138.805C451.586 139.781 450.642 140.573 449.41 141.181ZM459.505 153.085L457.969 151.813C459.489 150.437 460.601 148.973 461.305 147.421C462.009 145.869 462.361 144.117 462.361 142.165C462.361 140.213 462.009 138.461 461.305 136.909C460.601 135.357 459.489 133.893 457.969 132.517L459.505 131.245C461.121 132.573 462.393 134.157 463.321 135.997C464.265 137.821 464.737 139.877 464.737 142.165C464.737 144.453 464.265 146.509 463.321 148.333C462.393 150.157 461.121 151.741 459.505 153.085Z" fill="#FAFAFA"/>
</g>
<defs>
<filter id="filter0_dd_5_2" x="504.696" y="219.527" width="127.377" height="87.5619" filterUnits="userSpaceOnUse" color-interpolation-filters="sRGB">
<feFlood flood-opacity="0" result="BackgroundImageFix"/>
<feColorMatrix in="SourceAlpha" type="matrix" values="0 0 0 0 0 0 0 0 0 0 0 0 0 0 0 0 0 0 127 0" result="hardAlpha"/>
<feOffset dy="4"/>
<feGaussianBlur stdDeviation="2"/>
<feComposite in2="hardAlpha" operator="out"/>
<feColorMatrix type="matrix" values="0 0 0 0 0 0 0 0 0 0 0 0 0 0 0 0 0 0 0.25 0"/>
<feBlend mode="normal" in2="BackgroundImageFix" result="effect1_dropShadow_5_2"/>
<feColorMatrix in="SourceAlpha" type="matrix" values="0 0 0 0 0 0 0 0 0 0 0 0 0 0 0 0 0 0 127 0" result="hardAlpha"/>
<feOffset dy="4"/>
<feGaussianBlur stdDeviation="2"/>
<feComposite in2="hardAlpha" operator="out"/>
<feColorMatrix type="matrix" values="0 0 0 0 0 0 0 0 0 0 0 0 0 0 0 0 0 0 0.25 0"/>
<feBlend mode="normal" in2="effect1_dropShadow_5_2" result="effect2_dropShadow_5_2"/>
<feBlend mode="normal" in="SourceGraphic" in2="effect2_dropShadow_5_2" result="shape"/>
</filter>
<filter id="filter1_dd_5_2" x="640.828" y="223.327" width="117.592" height="100.235" filterUnits="userSpaceOnUse" color-interpolation-filters="sRGB">
<feFlood flood-opacity="0" result="BackgroundImageFix"/>
<feColorMatrix in="SourceAlpha" type="matrix" values="0 0 0 0 0 0 0 0 0 0 0 0 0 0 0 0 0 0 127 0" result="hardAlpha"/>
<feOffset dy="4"/>
<feGaussianBlur stdDeviation="2"/>
<feComposite in2="hardAlpha" operator="out"/>
<feColorMatrix type="matrix" values="0 0 0 0 0 0 0 0 0 0 0 0 0 0 0 0 0 0 0.25 0"/>
<feBlend mode="normal" in2="BackgroundImageFix" result="effect1_dropShadow_5_2"/>
<feColorMatrix in="SourceAlpha" type="matrix" values="0 0 0 0 0 0 0 0 0 0 0 0 0 0 0 0 0 0 127 0" result="hardAlpha"/>
<feOffset dy="4"/>
<feGaussianBlur stdDeviation="2"/>
<feComposite in2="hardAlpha" operator="out"/>
<feColorMatrix type="matrix" values="0 0 0 0 0 0 0 0 0 0 0 0 0 0 0 0 0 0 0.25 0"/>
<feBlend mode="normal" in2="effect1_dropShadow_5_2" result="effect2_dropShadow_5_2"/>
<feBlend mode="normal" in="SourceGraphic" in2="effect2_dropShadow_5_2" result="shape"/>
</filter>
<filter id="filter2_dd_5_2" x="542.414" y="212.634" width="185.257" height="246.324" filterUnits="userSpaceOnUse" color-interpolation-filters="sRGB">
<feFlood flood-opacity="0" result="BackgroundImageFix"/>
<feColorMatrix in="SourceAlpha" type="matrix" values="0 0 0 0 0 0 0 0 0 0 0 0 0 0 0 0 0 0 127 0" result="hardAlpha"/>
<feOffset dy="4"/>
<feGaussianBlur stdDeviation="2"/>
<feComposite in2="hardAlpha" operator="out"/>
<feColorMatrix type="matrix" values="0 0 0 0 0 0 0 0 0 0 0 0 0 0 0 0 0 0 0.25 0"/>
<feBlend mode="normal" in2="BackgroundImageFix" result="effect1_dropShadow_5_2"/>
<feColorMatrix in="SourceAlpha" type="matrix" values="0 0 0 0 0 0 0 0 0 0 0 0 0 0 0 0 0 0 127 0" result="hardAlpha"/>
<feOffset dy="4"/>
<feGaussianBlur stdDeviation="2"/>
<feComposite in2="hardAlpha" operator="out"/>
<feColorMatrix type="matrix" values="0 0 0 0 0 0 0 0 0 0 0 0 0 0 0 0 0 0 0.25 0"/>
<feBlend mode="normal" in2="effect1_dropShadow_5_2" result="effect2_dropShadow_5_2"/>
<feBlend mode="normal" in="SourceGraphic" in2="effect2_dropShadow_5_2" result="shape"/>
</filter>
<filter id="filter3_dd_5_2" x="574.451" y="87.4249" width="64.1744" height="61.099" filterUnits="userSpaceOnUse" color-interpolation-filters="sRGB">
<feFlood flood-opacity="0" result="BackgroundImageFix"/>
<feColorMatrix in="SourceAlpha" type="matrix" values="0 0 0 0 0 0 0 0 0 0 0 0 0 0 0 0 0 0 127 0" result="hardAlpha"/>
<feOffset dy="4"/>
<feGaussianBlur stdDeviation="2"/>
<feComposite in2="hardAlpha" operator="out"/>
<feColorMatrix type="matrix" values="0 0 0 0 0 0 0 0 0 0 0 0 0 0 0 0 0 0 0.25 0"/>
<feBlend mode="normal" in2="BackgroundImageFix" result="effect1_dropShadow_5_2"/>
<feColorMatrix in="SourceAlpha" type="matrix" values="0 0 0 0 0 0 0 0 0 0 0 0 0 0 0 0 0 0 127 0" result="hardAlpha"/>
<feOffset dy="4"/>
<feGaussianBlur stdDeviation="2"/>
<feComposite in2="hardAlpha" operator="out"/>
<feColorMatrix type="matrix" values="0 0 0 0 0 0 0 0 0 0 0 0 0 0 0 0 0 0 0.25 0"/>
<feBlend mode="normal" in2="effect1_dropShadow_5_2" result="effect2_dropShadow_5_2"/>
<feBlend mode="normal" in="SourceGraphic" in2="effect2_dropShadow_5_2" result="shape"/>
</filter>
<filter id="filter4_d_5_2" x="577.228" y="87.3108" width="60.1135" height="33.0476" filterUnits="userSpaceOnUse" color-interpolation-filters="sRGB">
<feFlood flood-opacity="0" result="BackgroundImageFix"/>
<feColorMatrix in="SourceAlpha" type="matrix" values="0 0 0 0 0 0 0 0 0 0 0 0 0 0 0 0 0 0 127 0" result="hardAlpha"/>
<feOffset dy="4"/>
<feGaussianBlur stdDeviation="2"/>
<feComposite in2="hardAlpha" operator="out"/>
<feColorMatrix type="matrix" values="0 0 0 0 0 0 0 0 0 0 0 0 0 0 0 0 0 0 0.25 0"/>
<feBlend mode="normal" in2="BackgroundImageFix" result="effect1_dropShadow_5_2"/>
<feBlend mode="normal" in="SourceGraphic" in2="effect1_dropShadow_5_2" result="shape"/>
</filter>
<filter id="filter5_d_5_2" x="645.661" y="91.4431" width="64.1336" height="61.213" filterUnits="userSpaceOnUse" color-interpolation-filters="sRGB">
<feFlood flood-opacity="0" result="BackgroundImageFix"/>
<feColorMatrix in="SourceAlpha" type="matrix" values="0 0 0 0 0 0 0 0 0 0 0 0 0 0 0 0 0 0 127 0" result="hardAlpha"/>
<feOffset dy="4"/>
<feGaussianBlur stdDeviation="2"/>
<feComposite in2="hardAlpha" operator="out"/>
<feColorMatrix type="matrix" values="0 0 0 0 0 0 0 0 0 0 0 0 0 0 0 0 0 0 0.25 0"/>
<feBlend mode="normal" in2="BackgroundImageFix" result="effect1_dropShadow_5_2"/>
<feBlend mode="normal" in="SourceGraphic" in2="effect1_dropShadow_5_2" result="shape"/>
</filter>
<filter id="filter6_d_5_2" x="645.661" y="91.5573" width="64.1336" height="61.0989" filterUnits="userSpaceOnUse" color-interpolation-filters="sRGB">
<feFlood flood-opacity="0" result="BackgroundImageFix"/>
<feColorMatrix in="SourceAlpha" type="matrix" values="0 0 0 0 0 0 0 0 0 0 0 0 0 0 0 0 0 0 127 0" result="hardAlpha"/>
<feOffset dy="4"/>
<feGaussianBlur stdDeviation="2"/>
<feComposite in2="hardAlpha" operator="out"/>
<feColorMatrix type="matrix" values="0 0 0 0 0 0 0 0 0 0 0 0 0 0 0 0 0 0 0.25 0"/>
<feBlend mode="normal" in2="BackgroundImageFix" result="effect1_dropShadow_5_2"/>
<feBlend mode="normal" in="SourceGraphic" in2="effect1_dropShadow_5_2" result="shape"/>
</filter>
<filter id="filter7_d_5_2" x="556.536" y="99.0422" width="158.442" height="136.76" filterUnits="userSpaceOnUse" color-interpolation-filters="sRGB">
<feFlood flood-opacity="0" result="BackgroundImageFix"/>
<feColorMatrix in="SourceAlpha" type="matrix" values="0 0 0 0 0 0 0 0 0 0 0 0 0 0 0 0 0 0 127 0" result="hardAlpha"/>
<feOffset dy="1"/>
<feGaussianBlur stdDeviation="2"/>
<feComposite in2="hardAlpha" operator="out"/>
<feColorMatrix type="matrix" values="0 0 0 0 0 0 0 0 0 0 0 0 0 0 0 0 0 0 0.8 0"/>
<feBlend mode="normal" in2="BackgroundImageFix" result="effect1_dropShadow_5_2"/>
<feBlend mode="normal" in="SourceGraphic" in2="effect1_dropShadow_5_2" result="shape"/>
</filter>
<filter id="filter8_d_5_2" x="428.376" y="179.319" width="110.634" height="136.609" filterUnits="userSpaceOnUse" color-interpolation-filters="sRGB">
<feFlood flood-opacity="0" result="BackgroundImageFix"/>
<feColorMatrix in="SourceAlpha" type="matrix" values="0 0 0 0 0 0 0 0 0 0 0 0 0 0 0 0 0 0 127 0" result="hardAlpha"/>
<feOffset dy="4"/>
<feGaussianBlur stdDeviation="2"/>
<feComposite in2="hardAlpha" operator="out"/>
<feColorMatrix type="matrix" values="0 0 0 0 0 0 0 0 0 0 0 0 0 0 0 0 0 0 0.25 0"/>
<feBlend mode="normal" in2="BackgroundImageFix" result="effect1_dropShadow_5_2"/>
<feBlend mode="normal" in="SourceGraphic" in2="effect1_dropShadow_5_2" result="shape"/>
</filter>
<filter id="filter9_d_5_2" x="503.491" y="277.892" width="28.6606" height="30.6585" filterUnits="userSpaceOnUse" color-interpolation-filters="sRGB">
<feFlood flood-opacity="0" result="BackgroundImageFix"/>
<feColorMatrix in="SourceAlpha" type="matrix" values="0 0 0 0 0 0 0 0 0 0 0 0 0 0 0 0 0 0 127 0" result="hardAlpha"/>
<feOffset dy="4"/>
<feGaussianBlur stdDeviation="2"/>
<feComposite in2="hardAlpha" operator="out"/>
<feColorMatrix type="matrix" values="0 0 0 0 0 0 0 0 0 0 0 0 0 0 0 0 0 0 0.25 0"/>
<feBlend mode="normal" in2="BackgroundImageFix" result="effect1_dropShadow_5_2"/>
<feBlend mode="normal" in="SourceGraphic" in2="effect1_dropShadow_5_2" result="shape"/>
</filter>
<filter id="filter10_d_5_2" x="107.826" y="131.173" width="360.911" height="30.32" filterUnits="userSpaceOnUse" color-interpolation-filters="sRGB">
<feFlood flood-opacity="0" result="BackgroundImageFix"/>
<feColorMatrix in="SourceAlpha" type="matrix" values="0 0 0 0 0 0 0 0 0 0 0 0 0 0 0 0 0 0 127 0" result="hardAlpha"/>
<feOffset dy="4"/>
<feGaussianBlur stdDeviation="2"/>
<feComposite in2="hardAlpha" operator="out"/>
<feColorMatrix type="matrix" values="0 0 0 0 0 0 0 0 0 0 0 0 0 0 0 0 0 0 0.25 0"/>
<feBlend mode="normal" in2="BackgroundImageFix" result="effect1_dropShadow_5_2"/>
<feBlend mode="normal" in="SourceGraphic" in2="effect1_dropShadow_5_2" result="shape"/>
</filter>
</defs>
</svg>
